<?xml version="1.0" encoding="UTF-8"?>
<svg version="1.1" xmlns="http://www.w3.org/2000/svg" width="41" height="48">
<path d="M0 0 C3.22868746 -0.14584064 6.45652365 -0.23424106 9.6875 -0.3125 C10.59951172 -0.35439453 11.51152344 -0.39628906 12.45117188 -0.43945312 C19.26371745 -0.56331759 19.26371745 -0.56331759 23.04296875 2.328125 C25.08209533 5.11208224 26.53897248 7.87871392 28 11 C28.556875 11.61875 29.11375 12.2375 29.6875 12.875 C31.7013683 16.13554867 31.64171876 19.33303566 31 23 C28.90333729 27.0435638 27.23415988 29.34315483 23 31 C19.97207178 31.25065631 17.04558972 31.08957617 14 31 C13.34 35.29 12.68 39.58 12 44 C8.7 44 5.4 44 2 44 C2.33 41.36 2.66 38.72 3 36 C0.36 36 -2.28 36 -5 36 C-5.24636774 28.48975774 -4.3063337 21.46094337 -3.0625 14.0625 C-2.88009766 12.92748047 -2.69769531 11.79246094 -2.50976562 10.62304688 C-1.14244815 2.2848963 -1.14244815 2.2848963 0 0 Z " fill="#002F86" transform="translate(7,2)"/>
<path d="M0 0 C3.16115776 1.36983503 3.9927092 1.9890638 6 5 C6.47364652 9.81540624 6.49199653 12.05114955 4.25 16.375 C1.58738995 19.48137839 -0.24922476 20.85506827 -4.359375 21.1953125 C-6.57291667 21.13020833 -8.78645833 21.06510417 -11 21 C-11.66 25.29 -12.32 29.58 -13 34 C-16.3 34 -19.6 34 -23 34 C-22.25403037 26.5403037 -20.63253871 19.31048782 -19 12 C-18.26394531 11.96261719 -17.52789062 11.92523438 -16.76953125 11.88671875 C-9.25568729 11.62774258 -9.25568729 11.62774258 -3 8 C-1.72219645 5.36094451 -0.87740476 2.81693107 0 0 Z " fill="#006EDE" transform="translate(32,12)"/>
<path d="M0 0 C1.48831242 0.00667405 2.97660807 0.01863442 4.46484375 0.03515625 C5.22345703 0.03966797 5.98207031 0.04417969 6.76367188 0.04882812 C8.64326246 0.06064945 10.52281274 0.07858547 12.40234375 0.09765625 C13.54296875 4.76953125 13.54296875 4.76953125 12.27734375 7.72265625 C10.02866329 10.57098483 8.80332901 11.75143292 5.40234375 13.09765625 C1.72111467 13.33649481 -1.91462839 13.27180993 -5.59765625 13.09765625 C-5.45732514 11.11809184 -5.31024395 9.13900484 -5.16015625 7.16015625 C-5.07894531 6.05800781 -4.99773438 4.95585937 -4.9140625 3.8203125 C-4.43662427 -0.288014 -4.30966348 0.11698326 0 0 Z " fill="#001D66" transform="translate(18.59765625,10.90234375)"/>
</svg>
